<svg xmlns="http://www.w3.org/2000/svg" viewBox="0 0 1200 680" width="1200" height="680">
  <defs>
    <linearGradient id="bg" x1="0" y1="0" x2="1" y2="1">
      <stop offset="0%" stop-color="#0b1530"/>
      <stop offset="100%" stop-color="#172548"/>
    </linearGradient>
    <linearGradient id="grad" x1="0" y1="0" x2="1" y2="1">
      <stop offset="0%" stop-color="#b7f463"/>
      <stop offset="100%" stop-color="#8faeff"/>
    </linearGradient>
    <filter id="shadow" x="-30%" y="-30%" width="160%" height="160%">
      <feDropShadow dx="0" dy="16" stdDeviation="20" flood-color="#060b19" flood-opacity=".42"/>
    </filter>
    <pattern id="grid" width="48" height="48" patternUnits="userSpaceOnUse">
      <path d="M 48 0 L 0 0 0 48" fill="none" stroke="#dae5ff" opacity=".10" stroke-width="1"/>
    </pattern>
  </defs>
  <rect width="1200" height="680" fill="url(#bg)"/>
  <rect width="1200" height="680" fill="url(#grid)"/>
  
  <circle cx="1040" cy="130" r="205" fill="#8faeff" opacity=".13"/>
  <circle cx="152" cy="556" r="210" fill="#b7f463" opacity=".11"/>
  <g filter="url(#shadow)">
    <rect x="146" y="114" width="880" height="454" rx="30" fill="#f8f7f2"/>
    <rect x="146" y="114" width="880" height="56" rx="30" fill="#e7ecf5"/>
    <circle cx="188" cy="142" r="8" fill="#ff9ad2"/><circle cx="214" cy="142" r="8" fill="#b7f463"/><circle cx="240" cy="142" r="8" fill="#8faeff"/>
    <rect x="182" y="204" width="178" height="327" rx="16" fill="#172548"/>
    <rect x="394" y="204" width="278" height="134" rx="16" fill="#e9eff9"/>
    <rect x="700" y="204" width="290" height="134" rx="16" fill="#e9eff9"/>
    <rect x="394" y="364" width="596" height="167" rx="16" fill="#eff4fb"/>
    <rect x="210" y="238" width="86" height="14" rx="7" fill="#b7f463"/><rect x="210" y="284" width="115" height="11" rx="5.5" fill="#8596b8"/><rect x="210" y="316" width="98" height="11" rx="5.5" fill="#8596b8"/><rect x="210" y="348" width="121" height="11" rx="5.5" fill="#8596b8"/><rect x="210" y="420" width="80" height="11" rx="5.5" fill="#8596b8"/>
    <rect x="424" y="235" width="146" height="16" rx="8" fill="#172548"/><rect x="424" y="270" width="186" height="11" rx="5.5" fill="#8293ad"/><rect x="424" y="294" width="111" height="11" rx="5.5" fill="#8293ad"/>
    <rect x="730" y="235" width="128" height="16" rx="8" fill="#172548"/><rect x="730" y="270" width="178" height="11" rx="5.5" fill="#8293ad"/><rect x="730" y="294" width="122" height="11" rx="5.5" fill="#8293ad"/>
    <path d="M430 483 C500 417 540 489 592 443 S710 465 760 414 S865 450 947 392" stroke="#8faeff" stroke-width="11" stroke-linecap="round" fill="none"/>
    <circle cx="592" cy="443" r="11" fill="#b7f463"/><circle cx="760" cy="414" r="11" fill="#b7f463"/><circle cx="947" cy="392" r="11" fill="#b7f463"/>
  </g>
  <text x="88" y="82" fill="#eef2ff" font-family="Arial, sans-serif" font-size="31" font-weight="700" letter-spacing="2">ONSITE HEATING PRO</text>

</svg>