<svg xmlns="http://www.w3.org/2000/svg" viewBox="0 0 1200 680" width="1200" height="680">
  <defs>
    <linearGradient id="bg" x1="0" y1="0" x2="1" y2="1">
      <stop offset="0%" stop-color="#112142"/>
      <stop offset="100%" stop-color="#172548"/>
    </linearGradient>
    <linearGradient id="grad" x1="0" y1="0" x2="1" y2="1">
      <stop offset="0%" stop-color="#b7f463"/>
      <stop offset="100%" stop-color="#8faeff"/>
    </linearGradient>
    <filter id="shadow" x="-30%" y="-30%" width="160%" height="160%">
      <feDropShadow dx="0" dy="16" stdDeviation="20" flood-color="#060b19" flood-opacity=".42"/>
    </filter>
    <pattern id="grid" width="48" height="48" patternUnits="userSpaceOnUse">
      <path d="M 48 0 L 0 0 0 48" fill="none" stroke="#dae5ff" opacity=".10" stroke-width="1"/>
    </pattern>
  </defs>
  <rect width="1200" height="680" fill="url(#bg)"/>
  <rect width="1200" height="680" fill="url(#grid)"/>
  
  <circle cx="1045" cy="95" r="220" fill="#ff9ad2" opacity=".13"/>
  <circle cx="130" cy="580" r="260" fill="#b7f463" opacity=".10"/>
  <g filter="url(#shadow)">
    <rect x="315" y="100" width="570" height="480" rx="45" fill="#f8f7f2"/>
    <rect x="366" y="150" width="468" height="168" rx="24" fill="#15223d"/>
    <text x="409" y="201" fill="#b7f463" font-family="monospace" font-size="20">INDOOR TEMP</text>
    <text x="410" y="279" fill="#eef2ff" font-family="Arial, sans-serif" font-size="82" font-weight="700">22.4°</text>
    <circle cx="506" cy="425" r="74" fill="none" stroke="#d6dfef" stroke-width="22"/>
    <path d="M451 448 A74 74 0 0 1 564 383" stroke="#b7f463" stroke-width="22" fill="none" stroke-linecap="round"/>
    <circle cx="506" cy="425" r="13" fill="#172548"/>
    <rect x="626" y="378" width="157" height="38" rx="19" fill="#e4eaf3"/><circle cx="752" cy="397" r="14" fill="#b7f463"/>
    <rect x="626" y="440" width="157" height="18" rx="9" fill="#e4eaf3"/><rect x="626" y="474" width="113" height="18" rx="9" fill="#e4eaf3"/>
  </g>
  <path d="M168 273 H272 V200 H313" stroke="#b7f463" stroke-width="4" fill="none" stroke-dasharray="9 10"/><circle cx="168" cy="273" r="8" fill="#b7f463"/>
  <path d="M886 476 H986 V544 H1054" stroke="#8faeff" stroke-width="4" fill="none" stroke-dasharray="9 10"/><circle cx="1054" cy="544" r="8" fill="#8faeff"/>
  <text x="83" y="72" fill="#eef2ff" font-family="Arial, sans-serif" font-size="31" font-weight="700" letter-spacing="2">HVAC THERMOSTAT PROTOTYPE</text>

</svg>